<svg xmlns="http://www.w3.org/2000/svg" width="748" height="454.338" viewBox="0 0 748 454.338"><defs><style>.a{fill:#eae5ff;}</style></defs><g transform="translate(-442 -286.662)"><rect class="a" width="632" height="106" rx="53" transform="translate(558 506)"/><rect class="a" width="610" height="106" rx="53" transform="translate(442 400)"/><rect class="a" width="574" height="106" rx="53" transform="translate(580 294)"/><path d="M336.174,96c-49.132,0-93.3-32.832-161.913-32.832C142.96,63.168,99.418,68.314,77,77c2.222-6.669-36.189,6.982-37,0-.737-6.448-30.343,4.262-16,12.562V496a16,16,0,0,0,16,16H51.2c-2.2-1,4.8-7.163,4.8-16V407c37.869-17.277,78.433-30.981,135-30.981,49.132,0,102.131,20.981,170.739,20.981,58.479,0,75.685-3.617,102.261-20.981,13.559-8.858,26.287-23.823,26.287-40.019V96c0-34.459-9.647-46.483-41.287-32.832C413.1,78.657,371.641,96,336.174,96ZM464,336c-21.783,15.412-60.824,32-102.261,32-59.945,0-102-32-161.913-32C156.465,336,82.648,353.4,51.2,368V128c21.784-15.412,81.623-32,123.06-32,59.945,0,102,32,161.913,32,43.271,0,96.32-17.366,127.826-32Z" transform="translate(605 229)"/></g></svg>