<svg xmlns="http://www.w3.org/2000/svg" xmlns:xlink="http://www.w3.org/1999/xlink" width="213.344" height="94.518" viewBox="0 0 213.344 94.518">
  <defs>
    <filter id="book-half" x="0" y="0" width="87.92" height="87.756" filterUnits="userSpaceOnUse">
      <feOffset dx="8" dy="10" input="SourceAlpha"/>
      <feGaussianBlur stdDeviation="5" result="blur"/>
      <feFlood flood-opacity="0.161"/>
      <feComposite operator="in" in2="blur"/>
      <feComposite in="SourceGraphic"/>
    </filter>
    <filter id="book-fill" x="23.011" y="24.735" width="80.162" height="69.783" filterUnits="userSpaceOnUse">
      <feOffset dx="10" dy="10" input="SourceAlpha"/>
      <feGaussianBlur stdDeviation="5" result="blur-2"/>
      <feFlood flood-color="#8661c8"/>
      <feComposite operator="in" in2="blur-2"/>
      <feComposite in="SourceGraphic"/>
    </filter>
  </defs>
  <g id="Logo" transform="translate(-6.43 7)">
    <g id="Group_1" data-name="Group 1" transform="translate(13.43 -2)">
      <g transform="matrix(1, 0, 0, 1, -7, -5)" filter="url(#book-half)">
        <path id="book-half-2" data-name="book-half" d="M22.612,5.757c1.74-2.214,4.741-2.848,8.279-2.417A28.932,28.932,0,0,1,39.9,6.21V38.1a30.5,30.5,0,0,0-8.744-2.6c-2.91-.357-6.06-.125-8.547,1.581Zm-1.33-2.906C18.662.129,14.863-.276,11.4.142A31.585,31.585,0,0,0,.779,3.693,1.654,1.654,0,0,0,0,5.156V40.51a1.711,1.711,0,0,0,.61,1.351,1.135,1.135,0,0,0,1.271.111,29.356,29.356,0,0,1,9.79-3.278c3.748-.456,6.89.28,8.574,2.819a1.2,1.2,0,0,0,2.075,0c1.684-2.539,4.826-3.275,8.571-2.819a29.331,29.331,0,0,1,9.792,3.278,1.135,1.135,0,0,0,1.271-.111,1.711,1.711,0,0,0,.61-1.351V5.156a1.654,1.654,0,0,0-.779-1.462A31.585,31.585,0,0,0,31.16.142C27.7-.279,23.9.129,21.282,2.851Z" transform="translate(7 26.28) rotate(-30)" fill="#7143c2"/>
      </g>
      <g transform="matrix(1, 0, 0, 1, -7, -5)" filter="url(#book-fill)">
        <g id="book-fill-2" data-name="book-fill" transform="translate(28.01 28.84)" fill="#7143c2" stroke-linecap="square">
          <path d="M25.081,3.589C21.993,1.018,17.516.635,13.44,1.03A43.783,43.783,0,0,0,.919,4.385,1.516,1.516,0,0,0,0,5.766v33.4a1.507,1.507,0,0,0,.719,1.276,1.612,1.612,0,0,0,1.5.105,40.692,40.692,0,0,1,11.537-3.1c4.417-.431,8.12.264,10.1,2.663a1.6,1.6,0,0,0,2.445,0c1.985-2.4,5.687-3.094,10.1-2.663a40.657,40.657,0,0,1,11.54,3.1,1.612,1.612,0,0,0,1.5-.105,1.507,1.507,0,0,0,.719-1.276V5.766a1.516,1.516,0,0,0-.919-1.381A43.783,43.783,0,0,0,36.722,1.03C32.646.632,28.169,1.018,25.081,3.589Z" stroke="none"/>
          <path d="M 34.07692718505859 1.1458740234375 C 30.31379890441895 1.1458740234375 27.34091949462891 2.032543182373047 25.24085807800293 3.781253814697266 L 25.08088874816895 3.914455413818359 L 24.92091941833496 3.781253814697266 C 22.82180786132813 2.033332824707031 19.84701919555664 1.147075653076172 16.07917785644531 1.147075653076172 C 15.24585723876953 1.147075653076172 14.3661003112793 1.191352844238281 13.46456909179688 1.278656005859375 C 7.650157928466797 1.847644805908203 2.468868255615234 3.974903106689453 1.019359588623047 4.613334655761719 C 0.5521278381347656 4.819114685058594 0.2501373291015625 5.27154541015625 0.25 5.765895843505859 L 0.25 39.16104507446289 C 0.2501296997070313 39.59261322021484 0.4749679565429688 39.99035263061523 0.8514595031738281 40.22498321533203 C 1.065258026123047 40.35822296142578 1.312908172607422 40.42865371704102 1.567649841308594 40.42865371704102 C 1.758087158203125 40.42865371704102 1.942497253417969 40.38996505737305 2.115997314453125 40.31355285644531 C 4.921489715576172 39.08147430419922 9.44561767578125 37.6157341003418 13.72945785522461 37.19698333740234 C 14.55311965942383 37.11659240722656 15.3502197265625 37.07583618164063 16.09862899780273 37.07582473754883 C 19.79778861999512 37.0757942199707 22.47328948974609 38.04244232177734 24.05070877075195 39.94881439208984 C 24.30214881896973 40.25230407714844 24.6776294708252 40.42636489868164 25.08088874816895 40.42636489868164 C 25.48413848876953 40.42636489868164 25.85962867736816 40.25230407714844 26.1109790802002 39.94893264770508 C 27.68837928771973 38.04257583618164 30.3632984161377 37.07592391967773 34.06142807006836 37.07582473754883 C 34.80912017822266 37.0758056640625 35.60575866699219 37.11657333374023 36.42920684814453 37.19698333740234 C 40.72134780883789 37.61624526977539 45.24427795410156 39.08183288574219 48.0460090637207 40.31366348266602 C 48.21926879882813 40.38996505737305 48.40367889404297 40.42865371704102 48.59412002563477 40.42865371704102 C 48.84886932373047 40.42865371704102 49.09652709960938 40.35822296142578 49.31031799316406 40.22498321533203 C 49.68680953979492 39.99035263061523 49.91164779663086 39.59261322021484 49.91177749633789 39.16111373901367 L 49.91177749633789 5.765964508056641 C 49.91164016723633 5.27154541015625 49.60964965820313 4.819114685058594 49.14241790771484 4.613334655761719 C 47.69290924072266 3.974903106689453 42.5115966796875 1.847644805908203 36.69726943969727 1.278663635253906 C 35.79455947875977 1.190574645996094 34.91316986083984 1.145893096923828 34.07722854614258 1.1458740234375 L 34.07692718505859 1.1458740234375 M 34.07759094238281 0.8958702087402344 C 34.96537780761719 0.8958930969238281 35.85289001464844 0.9450798034667969 36.72154998779297 1.029842376708984 C 41.46810913085938 1.494335174560547 46.25856018066406 3.069984436035156 49.24318695068359 4.384544372558594 C 49.802490234375 4.630874633789063 50.1616096496582 5.170906066894531 50.16177749633789 5.765895843505859 L 50.16177749633789 39.16111373901367 C 50.16162872314453 39.67720413208008 49.89070892333984 40.15785598754883 49.44255065917969 40.43715286254883 C 49.1855583190918 40.59731292724609 48.89057159423828 40.67865371704102 48.5941162109375 40.67865371704102 C 48.37358093261719 40.67865371704102 48.15219116210938 40.63359451293945 47.94524765014648 40.54245376586914 C 45.18321990966797 39.32808303833008 40.72509002685547 37.86780548095703 36.4049072265625 37.44580459594727 C 35.59771728515625 37.36697387695313 34.81488418579102 37.3258056640625 34.06143951416016 37.32582473754883 C 30.69457626342773 37.3259162902832 27.92521667480469 38.14850616455078 26.3035888671875 40.10831451416016 C 26.00605964660645 40.46742248535156 25.55631828308105 40.67636489868164 25.08088874816895 40.67636489868164 C 24.60545921325684 40.67636489868164 24.15571784973145 40.46742248535156 23.85819816589355 40.10831451416016 C 22.23644065856934 38.14835739135742 19.46754837036133 37.3257942199707 16.0986328125 37.32582473754883 C 15.34503555297852 37.32583236694336 14.56123352050781 37.36700057983398 13.75373840332031 37.44580459594727 C 9.436679840087891 37.86780548095703 4.981689453125 39.32808303833008 2.216518402099609 40.54245376586914 C 2.009544372558594 40.63360977172852 1.788219451904297 40.67865371704102 1.567653656005859 40.67865371704102 C 1.271232604980469 40.67865371704102 0.9761886596679688 40.59729385375977 0.7192306518554688 40.43715286254883 C 0.2710685729980469 40.15785598754883 0.000148773193359375 39.67720413208008 0 39.16111373901367 L 0 5.765895843505859 C 0.0001678466796875 5.170906066894531 0.3592872619628906 4.630874633789063 0.9185905456542969 4.384544372558594 C 3.903209686279297 3.069984436035156 8.693668365478516 1.494335174560547 13.44021987915039 1.029842376708984 C 14.30763626098633 0.9458465576171875 15.19266891479492 0.8970756530761719 16.07918548583984 0.8970756530761719 C 19.35804176330566 0.8970756530761719 22.6500358581543 1.564979553222656 25.08088874816895 3.589134216308594 C 27.51079177856445 1.565765380859375 30.79999732971191 0.8957862854003906 34.07759094238281 0.8958702087402344 Z" stroke="none" fill="rgba(255,255,255,0.68)"/>
        </g>
      </g>
    </g>
    <text id="Pokomo" transform="translate(52.774 57)" fill="#3c8856" font-size="41" font-family="Poppins-SemiBold, Poppins" font-weight="600" letter-spacing="-0.02em"><tspan x="0" y="0">P</tspan><tspan y="0" fill="#ce1313">o</tspan><tspan y="0" fill="#e4832f">k</tspan><tspan y="0" fill="#14afdf">o</tspan><tspan y="0" fill="#7143c2">m</tspan><tspan y="0">o</tspan></text>
  </g>
</svg>
