<svg xmlns="http://www.w3.org/2000/svg" width="63" height="63" viewBox="0 0 63 63"><defs><style>.a{fill:#e4832f;}.b,.c{fill:#fff;}.b{fill-rule:evenodd;}</style></defs><g transform="translate(-1337 -92)"><circle class="a" cx="31.5" cy="31.5" r="31.5" transform="translate(1337 92)"/><g transform="translate(1352.228 108.435)"><path class="b" d="M0,4.026A1.026,1.026,0,0,1,1.026,3H2.052a13.453,13.453,0,0,1,10,4.962,21.88,21.88,0,0,1,2.31,3.144,21.723,21.723,0,0,1,2.31-3.144A13.453,13.453,0,0,1,26.675,3V5.052a11.416,11.416,0,0,0-8.466,4.272,19.748,19.748,0,0,0-2.7,3.936,19.748,19.748,0,0,0,2.7,3.936,11.435,11.435,0,0,0,8.468,4.272V23.52a13.453,13.453,0,0,1-10-4.962,21.74,21.74,0,0,1-2.31-3.144,21.724,21.724,0,0,1-2.31,3.144,13.453,13.453,0,0,1-10,4.962H1.026a1.026,1.026,0,1,1,0-2.052H2.052A11.416,11.416,0,0,0,10.518,17.2a19.748,19.748,0,0,0,2.7-3.936,19.748,19.748,0,0,0-2.7-3.936A11.435,11.435,0,0,0,2.052,5.052H1.026A1.026,1.026,0,0,1,0,4.026Z" transform="translate(0 1.805)"/><path class="c" d="M13,9.865V1.8a.513.513,0,0,1,.841-.394l4.843,4.034a.513.513,0,0,1,0,.788l-4.843,4.034A.513.513,0,0,1,13,9.865Zm0,18.468V20.264a.513.513,0,0,1,.841-.394L18.684,23.9a.513.513,0,0,1,0,.788l-4.843,4.034A.513.513,0,0,1,13,28.333Z" transform="translate(13.675 0)"/></g></g></svg>