<svg xmlns="http://www.w3.org/2000/svg" xmlns:xlink="http://www.w3.org/1999/xlink" width="500" height="500" viewBox="0 0 500 500"><defs><style>.a{clip-path:url(#d);}.b,.k{fill:#fff;}.b{stroke:#707070;}.c{fill:#7143c2;}.d{fill:rgba(255,255,255,0.68);}.e{fill:#3c8856;font-size:101px;font-family:SegoeUI-Semibold, Segoe UI;font-weight:600;letter-spacing:-0.02em;}.f{fill:#ce1313;}.g{fill:#e4832f;}.h{fill:#14afdf;}.i{stroke:none;}.j{fill:none;}.l{filter:url(#a);}</style><filter id="a" x="9.694" y="129.01" width="176.644" height="176.227" filterUnits="userSpaceOnUse"><feOffset dx="8" dy="10" input="SourceAlpha"/><feGaussianBlur stdDeviation="5" result="b"/><feFlood flood-opacity="0.161"/><feComposite operator="in" in2="b"/><feComposite in="SourceGraphic"/></filter><clipPath id="d"><rect width="500" height="500"/></clipPath></defs><g id="c" class="a"><rect class="k" width="500" height="500"/><g class="b"><rect class="i" width="500" height="500"/><rect class="j" x="0.5" y="0.5" width="499" height="499"/></g><g transform="translate(3.265 136.012)"><g transform="translate(13.429 -2.002)"><g class="l" transform="matrix(1, 0, 0, 1, -16.69, -134.01)"><path class="c" d="M57.251,14.575c4.405-5.605,12-7.21,20.961-6.119a73.249,73.249,0,0,1,22.809,7.266V96.46a77.218,77.218,0,0,0-22.138-6.583c-7.367-.9-15.343-.316-21.639,4ZM53.884,7.218C47.251.326,37.632-.7,28.865.359a79.966,79.966,0,0,0-26.89,8.99A4.188,4.188,0,0,0,0,13.053v89.508a4.332,4.332,0,0,0,1.544,3.42,2.874,2.874,0,0,0,3.218.281,74.323,74.323,0,0,1,24.786-8.3c9.489-1.154,17.444.709,21.707,7.137a3.038,3.038,0,0,0,5.253,0c4.264-6.428,12.218-8.292,21.7-7.137a74.259,74.259,0,0,1,24.791,8.3,2.874,2.874,0,0,0,3.218-.281,4.332,4.332,0,0,0,1.544-3.42V13.053a4.188,4.188,0,0,0-1.972-3.7A79.966,79.966,0,0,0,78.893.359C70.133-.707,60.512.326,53.884,7.218Z" transform="translate(16.69 187.89) rotate(-30)"/></g><g transform="translate(53.195 62.632)"><path class="c" d="M63.5,7.714C55.681,1.2,44.346.235,34.027,1.235a110.849,110.849,0,0,0-31.7,8.494A3.838,3.838,0,0,0,0,13.226V97.787a3.815,3.815,0,0,0,1.82,3.231,4.081,4.081,0,0,0,3.8.266,103.022,103.022,0,0,1,29.209-7.848c11.183-1.091,20.558.668,25.571,6.742a4.051,4.051,0,0,0,6.19,0c5.026-6.076,14.4-7.833,25.571-6.742a102.934,102.934,0,0,1,29.217,7.848,4.081,4.081,0,0,0,3.8-.266,3.815,3.815,0,0,0,1.82-3.231V13.226a3.838,3.838,0,0,0-2.327-3.5,110.849,110.849,0,0,0-31.7-8.494C82.652.228,71.317,1.2,63.5,7.714Z" transform="translate(0 -0.896)"/><path class="d" d="M86.275,1.529C76.748,1.529,69.221,3.774,63.9,8.2l-.405.337L63.094,8.2C57.78,3.776,50.248,1.532,40.709,1.532c-2.11,0-4.337.112-6.62.333A110.706,110.706,0,0,0,2.581,10.308,3.214,3.214,0,0,0,.633,13.226V97.774a3.171,3.171,0,0,0,1.523,2.694,3.448,3.448,0,0,0,3.2.224A104.359,104.359,0,0,1,34.76,92.8c2.085-.2,4.1-.307,6-.307,9.366,0,16.139,2.447,20.133,7.274a3.418,3.418,0,0,0,5.216,0C70.1,94.943,76.873,92.5,86.236,92.5c1.893,0,3.91.1,5.995.307a104.2,104.2,0,0,1,29.411,7.891,3.448,3.448,0,0,0,3.2-.225,3.171,3.171,0,0,0,1.523-2.694V13.226a3.214,3.214,0,0,0-1.948-2.918A110.706,110.706,0,0,0,92.909,1.865c-2.285-.223-4.517-.336-6.633-.336h0m0-.633c2.248,0,4.495.125,6.694.339a110.848,110.848,0,0,1,31.7,8.493,3.839,3.839,0,0,1,2.326,3.5V97.775a3.816,3.816,0,0,1-1.821,3.231,4.082,4.082,0,0,1-3.791.267,102.929,102.929,0,0,0-29.217-7.84c-2.044-.2-4.026-.3-5.933-.3-8.524,0-15.535,2.083-19.641,7.045a4.05,4.05,0,0,1-6.191,0c-4.106-4.962-11.116-7.045-19.646-7.045-1.908,0-3.892.1-5.937.3a103.02,103.02,0,0,0-29.209,7.84,4.082,4.082,0,0,1-3.791-.267A3.815,3.815,0,0,1,0,97.775V13.226a3.838,3.838,0,0,1,2.326-3.5,110.848,110.848,0,0,1,31.7-8.493C36.224,1.022,38.464.9,40.709.9,49.01.9,57.345,2.59,63.5,7.715,69.651,2.592,77.979.9,86.277.9Z" transform="translate(0 -0.896)"/></g></g><text class="e" transform="translate(113.041 144.98)"><tspan x="0" y="0">P</tspan><tspan class="f" y="0">o</tspan><tspan class="g" y="0">k</tspan><tspan class="h" y="0">o</tspan><tspan class="c" y="0">m</tspan><tspan y="0">o</tspan></text></g></g></svg>